<svg viewBox="0 0 29 29" xmlns="http://www.w3.org/2000/svg">
<path d="M0.53613 10.6074C-1.61403 18.319 2.89642 26.3137 10.6078 28.4639C18.3192 30.6141 26.3137 26.1035 28.4639 18.3919C30.614 10.6803 26.1036 2.68568 18.3922 0.535478C18.3879 0.535478 18.385 0.53405 18.3807 0.53262C10.6708 -1.60901 2.68486 2.90013 0.53613 10.6074Z" fill="#6DB3E3"/>
<path d="M19.2071 14.9705C19.2071 14.9705 19.207 15.072 19.1198 15.1149C17.0612 16.4201 14.954 17.6611 12.7995 18.8406H12.6394C12.6108 18.8406 12.6394 18.739 12.7409 18.6962C14.901 17.4924 17.0026 16.2614 19.0613 14.9562C19.1199 14.9419 19.1913 14.9419 19.2056 14.9705H19.2071Z" fill="#59A3D1"/>
<path d="M27.9471 9.142C24.5117 12.6518 20.6831 15.7556 16.5386 18.3905L14.7845 19.477C14.8431 19.5857 14.8431 19.7172 14.7845 19.8244C15.4507 19.4327 16.1183 19.041 16.8145 18.6793C18.4872 17.2382 20.2557 15.9114 22.1056 14.7077C23.4394 13.8813 24.7289 13.258 26.0199 12.5617C26.8176 11.8798 27.5567 11.1121 28.3244 10.4458L28.4545 10.9091L27.5996 11.8226C27.7969 11.774 28.0042 11.8412 28.1357 11.997C28.2501 12.1943 28.2501 12.4374 28.1357 12.6347L28.7591 12.1714V12.5489C27.8741 13.2308 26.962 13.9113 26.0342 14.5633C24.9034 15.5197 23.7582 16.4476 22.5702 17.3611C22.7803 17.3368 22.9934 17.3768 23.1792 17.4769L23.744 17.0709C25.3966 15.6212 27.0921 14.1715 28.7748 12.7219C28.7819 12.7705 28.7819 12.8191 28.7748 12.8663C27.4996 13.9828 26.2229 15.0837 24.962 16.2145L28.8176 13.3152V14.4746C28.6875 14.5618 28.5718 14.6776 28.4402 14.7791L28.1643 15.0408L27.9327 15.3453L28.8176 14.7363C28.8176 15.1709 28.7891 15.6055 28.7304 16.0415C27.5996 17.0123 26.4545 17.9544 25.2807 18.8537C24.5988 19.7529 23.9184 20.6507 23.1935 21.5357L23.5552 21.3184C25.4094 19.9717 27.115 18.4305 28.6433 16.7235V17.0709C28.3102 17.4183 28.0057 17.7528 27.6568 18.0859C26.6561 19.0567 25.6711 19.9559 24.7575 20.8981C26.0599 19.9059 27.3079 18.8465 28.4974 17.7228C28.4974 17.9258 28.4102 18.1431 28.3531 18.3461C28.3216 18.4648 28.2816 18.5806 28.2373 18.6935C27.2508 19.6214 26.1929 20.5207 25.1635 21.4185C25.1778 21.48 25.1778 21.5443 25.1635 21.6072C25.0449 21.9231 24.8119 22.1819 24.5116 22.332L24.25 22.4621C23.2207 23.0268 22.1913 23.6216 21.162 24.1577C20.9876 24.375 20.7818 24.5652 20.553 24.7224C19.8282 25.4473 19.1034 26.1721 18.3056 26.8383C18.3757 26.8297 18.4443 26.864 18.4801 26.9255C18.4801 27.0556 18.4071 27.2729 18.1612 27.4188L17.8139 27.6504L18.9004 27.0999H19.0447C19.4221 26.8683 19.7981 26.621 20.1613 26.3608C22.9176 24.4322 25.4938 22.2577 27.8584 19.8659C27.5267 20.7108 27.1136 21.5214 26.6261 22.2863C26.0242 23.1183 25.3608 23.9032 24.6403 24.6352C24.0026 25.2585 23.3508 25.839 22.6975 26.418C16.7359 30.5083 8.67137 29.5804 3.79492 24.2435C4.01222 24.222 4.23095 24.222 4.44682 24.2435L8.33117 21.7359C9.5921 20.9095 10.8387 20.0403 12.1139 19.141C12.2012 19.0538 12.3312 19.0267 12.447 19.0681C12.447 19.0681 12.447 19.2568 12.3312 19.344C10.5914 20.7937 8.85151 22.0547 6.98156 23.3156C8.67709 22.4607 10.2726 21.6344 11.9395 20.605L12.5486 20.1847C12.7487 20.046 12.9617 19.9302 13.1862 19.8373C15.2548 18.5849 17.2534 17.221 19.1734 15.7499C20.8261 14.4303 22.2328 13.2423 23.7539 11.8212C25.275 10.4001 26.3058 9.38647 27.5367 8.22559C27.6811 8.51581 27.8269 8.83462 27.9427 9.13914L27.9471 9.142Z" fill="#59A3D1"/>
</svg>