<svg viewBox="0 0 55 45" xmlns="http://www.w3.org/2000/svg">
<path d="M52.6111 25.3304L9.66558 44.3432L8.42127 11.3532L52.6111 25.3304Z" fill="#FDC113"/>
<path d="M41.9315 21.9525C41.7132 22.0419 41.5002 22.1431 41.2922 22.2547L41.7764 21.8999C41.318 22.0842 40.8764 22.3064 40.4564 22.5621C39.1769 23.2875 38.0883 24.2911 37.2849 25.4896C34.592 27.0332 31.8999 28.6331 29.1634 30.0891C29.0105 30.1371 28.9141 30.2688 28.9353 30.3351C28.9564 30.4015 29.076 30.3922 29.2064 30.3229C31.2401 29.35 33.2288 28.2899 35.2245 27.1979C33.6625 28.2549 32.0904 29.33 30.4372 30.3427L29.7876 30.7063C29.5712 30.8265 29.3639 30.9602 29.1647 31.1047C27.0494 32.3938 25.0541 33.6302 22.8083 34.8008C20.89 35.7956 19.2006 36.6453 17.2498 37.5922C14.6011 38.8895 12.1242 40.0598 9.61666 41.5585L9.5888 42.1915C15.1601 39.3961 20.7048 36.7536 26.2207 33.3499L27.9857 32.2589L28.0068 32.3253C28.0803 32.393 28.1801 32.4302 28.2845 32.4272C27.633 32.8345 27.0188 33.26 26.3203 33.7119C24.2915 34.6952 22.326 35.7986 20.4352 37.0126C19.1038 37.881 17.9418 38.7974 16.7745 39.7021L11.7675 42.3499C11.7675 42.3499 11.6289 42.3935 11.6397 42.4765C11.6504 42.5595 11.6397 42.4765 11.7368 42.446C12.9562 41.9465 14.1816 41.3722 15.4218 40.7947C15.2821 40.9831 15.2459 41.1554 15.3248 41.2602C15.4038 41.3649 15.6293 41.3969 15.9018 41.3395L15.1247 41.831C15.0399 41.8756 14.9718 41.9432 14.9255 42.0248L16.271 41.4425L18.4724 40.0832L22.3925 37.9662C22.28 38.1163 22.2138 38.2935 22.2027 38.4757L21.6088 38.8218C20.2287 39.488 18.8568 40.1798 17.4922 40.8993L19.3408 40.0709L20.2648 39.6062L19.8398 39.856L52.6091 25.3332L41.9324 21.9552L41.9315 21.9525Z" fill="#E7AB22"/>
<path d="M30.027 8.80106C34.8297 9.04504 38.4113 12.9711 38.0278 17.5699C37.6428 22.1691 33.4375 25.7002 28.6353 25.4575C23.8326 25.2135 20.251 21.2875 20.6345 16.6887C20.6347 16.6842 20.6358 16.6779 20.6359 16.6733C21.0292 12.0804 25.2295 8.55843 30.027 8.80106Z" fill="#1669B3"/>
<path d="M28.6224 19.7789L28.7196 19.7484C29.8769 18.8617 31.0218 17.9358 32.1442 16.9886L32.0327 17.0237C30.9147 17.9844 29.7798 18.8923 28.6224 19.7789C28.6199 19.7216 28.6038 19.7699 28.6224 19.7789Z" fill="#0361A1"/>
<path d="M23.5076 23.4761C26.202 22.2434 28.7493 20.7262 31.1026 18.9556L32.0725 18.2009C32.0936 18.2673 32.1761 18.2845 32.2672 18.2842L31.188 19.1746C30.0315 19.8271 28.915 20.546 27.8467 21.3272C27.1118 21.9068 26.488 22.4946 25.827 23.0644C25.2806 23.3672 24.7112 23.6475 24.1605 23.9368L24.395 24.0955L25.0801 23.7938C25.0073 23.8911 25.0059 24.0197 25.0752 24.1141C25.1089 24.2197 25.2829 24.238 25.444 24.2157L25.0461 24.4569L25.2495 24.5673C25.8248 24.2122 26.3934 23.8309 26.9458 23.4532C27.7269 23.0185 28.4983 22.5585 29.2487 22.0769C29.201 22.1887 29.1813 22.3096 29.1924 22.4283L28.8546 22.6655C27.6732 23.2842 26.4952 23.9583 25.322 24.6026L28.0088 23.134L25.5668 24.7C25.7801 24.7924 26.0038 24.868 26.2257 24.9428L26.9358 24.7196L26.3958 25.092C26.6459 25.1713 26.9025 25.2366 27.1619 25.2862C27.9429 24.8515 28.7044 24.4096 29.4686 23.9221L31.4175 23.3096L31.2196 23.4582C30.0756 24.2289 28.8504 24.8777 27.5631 25.391L27.7867 25.422L28.5504 25.0807C29.4186 24.6335 30.0869 24.279 30.7261 23.9321C29.8902 24.4659 29.0218 24.9519 28.1279 25.3878C28.2532 25.411 28.3797 25.4234 28.5084 25.4276L28.7239 25.4329C29.4478 25.0608 30.1761 24.6577 30.8914 24.2585C30.9266 24.2802 30.9678 24.2911 31.0097 24.2943C31.2103 24.3073 31.4103 24.2444 31.5669 24.1192L31.6987 24.0048C32.2404 23.544 32.7735 23.1009 33.298 22.6306C33.4568 22.5762 33.608 22.5034 33.7498 22.4156C34.3049 22.1399 34.8638 21.8763 35.4121 21.5744C35.4024 21.6132 35.4154 21.6538 35.4457 21.68C35.4457 21.68 35.665 21.6975 35.7943 21.5704L35.9922 21.4218L35.4587 21.9083L35.3758 21.9344L34.7313 22.4126C33.0699 23.5575 31.3076 24.5583 29.4669 25.402C30.0295 25.4114 30.5948 25.3603 31.1491 25.2501C31.7562 25.0638 32.3481 24.8346 32.92 24.5625L34.3247 23.8305C37.8867 21.3344 39.0439 16.7562 37.0349 13.109C36.9753 13.2231 36.9307 13.3444 36.9043 13.4688L34.6756 15.1272C33.9568 15.6586 33.2046 16.184 32.4361 16.7026C32.339 16.7331 32.3126 16.8427 32.3251 16.882C32.3376 16.9213 32.3251 16.882 32.4923 16.8295C33.6673 16.1414 34.7407 15.4256 35.8393 14.6453C35.0301 15.4359 34.1816 16.1868 33.2947 16.8961L32.9322 17.1545L32.6069 17.4311C31.4766 18.3435 30.2966 19.1985 29.0736 19.9926C27.979 20.642 27.02 21.1893 25.8999 21.7588L23.068 23.1569C23.2088 23.2139 23.3564 23.3418 23.504 23.4697L23.5076 23.4761Z" fill="#0361A1"/>
</svg>
