<svg viewBox="0 0 278 220" xmlns="http://www.w3.org/2000/svg">
<path d="M193.506 11.833L13.6235 117.375L134.254 208.904L193.506 11.833Z" fill="#69B3E7"/>
<path d="M179.17 59.4584C178.292 60.0062 177.382 60.4998 176.444 60.9365L179.006 60.1154C177.138 61.3103 175.168 62.3362 173.119 63.1809C167.186 65.9347 160.679 67.2116 154.15 66.9033C141.504 72.6512 128.857 78.2897 116.374 84.2565C116.135 84.3653 115.875 84.4216 115.611 84.4216C115.348 84.4216 115.088 84.3653 114.848 84.2565C114.848 84.2565 114.848 83.5996 115.666 83.2712C124.387 78.5086 133.436 74.0745 142.539 69.6952C134.581 72.5418 126.622 75.4978 118.664 78.7823L115.611 80.2056C114.616 80.6455 113.597 81.0293 112.559 81.3552C102.42 85.6251 92.7172 89.6212 82.6874 94.6575C74.0749 98.9821 66.607 102.869 58.158 107.412C46.4929 113.708 35.918 119.51 23.9804 124.656L21.6365 122.904C46.1659 109.985 70.0957 96.9019 96.86 85.844L105.309 82.9975C105.238 82.7734 105.226 82.5348 105.274 82.3047C105.322 82.0746 105.428 81.8607 105.582 81.6837C102.365 82.9975 99.0949 84.2018 95.7698 85.4061C86.959 90.2572 77.8565 94.5536 68.5149 98.2704C61.8102 100.789 55.5416 102.54 49.1639 104.456C41.6416 108.124 34.0102 111.901 26.5423 115.405C26.2782 115.501 25.9888 115.501 25.7247 115.405C25.7247 115.405 25.7247 115.131 25.9972 114.912C30.9576 111.846 36.1906 108.89 41.478 105.989C40.4423 105.989 39.6792 105.606 39.5157 105.004C39.3522 104.402 39.7882 103.58 40.6059 102.759L36.8447 104.292C36.4403 104.443 35.9954 104.443 35.591 104.292L41.0419 101.062L51.9439 96.6282C57.9945 93.6721 63.9906 90.8255 69.9322 87.9242C69.0891 87.9207 68.2618 87.6942 67.5337 87.2673L64.6992 88.5264C58.7576 91.7562 52.707 94.8764 46.602 97.942L54.2878 93.4532C55.6506 92.6868 57.0678 92.0299 58.4306 91.3182L56.4137 92.1941L193.506 11.833L179.17 59.4584Z" fill="#6BA7D1"/>
<path d="M243.819 208.904C236.297 211.823 228.082 212.439 220.212 210.675C212.341 208.912 205.167 204.847 199.594 198.993C194.021 193.14 190.299 185.76 188.898 177.785C187.496 169.81 188.477 161.597 191.718 154.181C194.958 146.765 200.313 140.48 207.106 136.116C213.9 131.753 221.828 129.508 229.891 129.664C237.953 129.82 245.789 132.37 252.41 136.993C259.031 141.616 264.141 148.105 267.094 155.64C269.066 160.671 270.028 166.043 269.924 171.448C269.82 176.853 268.653 182.184 266.49 187.135C264.327 192.085 261.21 196.557 257.319 200.293C253.428 204.029 248.84 206.956 243.819 208.904Z" fill="#FFC107"/>
<path d="M226.268 157.447C226.268 157.447 225.941 157.447 225.886 157.447C222.779 163.633 219.89 169.928 217.165 176.333C217.165 176.333 217.165 176.716 217.165 176.771C217.247 176.759 217.324 176.721 217.383 176.662C217.442 176.603 217.48 176.525 217.492 176.442C220.272 170.037 222.943 163.742 226.213 157.611C226.377 157.666 226.322 157.447 226.268 157.447Z" fill="#E8AA0F"/>
<path d="M239.84 131.171C230.963 141.834 223.353 153.5 217.164 165.932L214.602 171.406C214.451 171.324 214.282 171.282 214.111 171.282C213.94 171.282 213.771 171.324 213.621 171.406C214.493 169.435 215.419 167.41 216.237 165.329C219.794 160.198 223.017 154.84 225.885 149.29C227.793 145.294 229.21 141.517 230.791 137.685C232.481 135.221 234.28 132.922 236.242 130.568C235.752 130.568 235.316 130.568 234.879 130.295L232.59 133.032C232.629 132.749 232.589 132.46 232.473 132.199C232.357 131.938 232.171 131.714 231.936 131.554C231.638 131.44 231.316 131.406 231.001 131.454C230.686 131.502 230.388 131.63 230.137 131.827L231.282 129.966C230.919 129.993 230.555 129.993 230.192 129.966C228.502 132.703 226.921 135.44 225.286 138.232C223.65 141.024 220.652 145.239 218.472 148.852C218.469 148.244 218.278 147.651 217.927 147.155L218.908 145.458C222.615 140.367 226.212 135.167 229.81 129.966C229.81 129.966 229.537 129.966 229.428 129.966C226.648 133.853 223.977 137.794 221.088 141.626L228.066 129.583C226.976 129.583 225.885 129.583 224.795 129.583L224.032 130.678L223.378 131.554L222.615 132.32L224.087 129.638C222.833 129.638 221.634 130.021 220.434 130.24C218.036 133.689 215.692 137.192 213.512 140.75C211.168 142.94 208.878 145.13 206.534 147.429L207.079 146.334C210.36 140.741 214.195 135.496 218.527 130.678C218.207 130.794 217.879 130.886 217.545 130.952L215.038 134.017C212.585 137.137 210.296 140.148 207.952 142.995C210.328 139.021 212.95 135.2 215.801 131.554C215.201 131.554 214.656 131.882 214.057 132.156C213.457 132.43 213.457 132.43 213.13 132.539C210.841 135.605 208.606 138.834 206.371 142.009C206.285 141.97 206.192 141.95 206.098 141.95C206.004 141.95 205.911 141.97 205.826 142.009C204.976 142.427 204.315 143.15 203.972 144.035L203.7 144.856C202.392 147.922 201.029 150.932 199.775 153.998C199.234 154.563 198.759 155.187 198.358 155.859C196.559 158.104 194.76 160.403 192.907 162.811C192.905 162.713 192.879 162.617 192.832 162.531C192.784 162.445 192.716 162.372 192.634 162.319C192.253 162.319 191.653 162.647 191.326 163.359L190.781 164.399L192.035 161.224L192.035 160.786L193.779 157.392C198.429 149.11 203.791 141.252 209.805 133.908C207.549 135.081 205.412 136.475 203.427 138.068C201.23 140.061 199.189 142.22 197.322 144.528L192.852 150.494C188.071 159.247 186.629 169.449 188.796 179.193C190.963 188.936 196.591 197.552 204.627 203.43C204.686 202.811 204.686 202.188 204.627 201.569L210.514 189.909C212.476 186.131 214.547 182.354 216.728 178.522C216.728 178.139 216.728 177.701 216.728 177.537C216.728 177.373 216.237 177.537 215.965 177.92C212.421 183.394 209.369 188.54 206.371 194.343C208.279 189.361 210.132 184.599 212.53 179.617L213.566 177.811C213.894 177.197 214.168 176.556 214.384 175.895C217.252 169.675 220.474 163.625 224.032 157.775C227.248 152.739 230.192 148.688 233.735 143.761L242.838 132.265C241.861 131.84 240.86 131.474 239.84 131.171Z" fill="#E8AA0F"/>
</svg>