<svg viewBox="0 0 325 273" fill="none" xmlns="http://www.w3.org/2000/svg">
<path d="M201.631 246.223L34.2511 107.18L174.622 34.5609L201.631 246.223Z" fill="#FFA0C3"/>
<path d="M195.086 195.069C194.275 194.357 193.421 193.694 192.529 193.086L195.031 194.369C193.31 192.824 191.455 191.434 189.486 190.215C183.839 186.373 177.344 183.939 170.552 183.122C158.495 175.056 146.419 167.101 134.568 158.839C134.34 158.687 134.081 158.584 133.809 158.538C133.538 158.493 133.259 158.505 132.993 158.575C132.993 158.575 132.879 159.246 133.666 159.724C141.843 166.103 150.414 172.203 159.051 178.256C151.33 173.968 143.628 169.567 135.983 164.831L133.079 162.847C132.127 162.225 131.142 161.656 130.127 161.143C120.402 155.021 111.08 149.255 101.6 142.37C93.4597 136.457 86.4252 131.191 78.4917 125.082C67.5423 116.627 57.6327 108.863 46.2028 101.535L43.4799 102.919C66.5597 120.374 88.9921 137.893 114.701 153.834L122.929 158.208C122.817 158.424 122.763 158.666 122.772 158.909C122.782 159.153 122.854 159.39 122.982 159.597C119.89 157.697 116.723 155.899 113.5 154.092C105.246 147.607 96.5956 141.638 87.5976 136.22C81.1136 132.485 74.9468 129.608 68.6961 126.544C61.5673 121.492 54.345 116.308 47.244 111.433C46.9881 111.289 46.6894 111.239 46.4001 111.292C46.4001 111.292 46.3527 111.571 46.596 111.842C51.1848 115.835 56.0738 119.763 61.0286 123.645C59.9596 123.465 59.1055 123.725 58.8323 124.312C58.5592 124.899 58.867 125.813 59.5687 126.794L55.9521 124.576C55.5609 124.351 55.1016 124.274 54.6581 124.358L59.7247 128.604L70.209 135.026C75.942 139.095 81.6377 143.044 87.2676 147.039C86.3968 146.896 85.5037 146.985 84.6782 147.295L81.9707 145.516C76.3977 141.186 70.6931 136.948 64.9229 132.757L72.0781 138.677C73.3519 139.696 74.7009 140.613 75.9842 141.577L74.0542 140.332L201.631 246.223L195.086 195.069Z" fill="#E599B5"/>
<path d="M287.711 53.5576C280.453 49.2707 272.081 47.2166 263.652 47.6544C255.223 48.0922 247.113 51.0023 240.347 56.0176C233.58 61.033 228.46 67.9289 225.631 75.8357C222.802 83.7425 222.392 92.306 224.452 100.446C226.511 108.586 230.949 115.938 237.205 121.575C243.461 127.212 251.255 130.881 259.604 132.119C267.953 133.358 276.483 132.11 284.118 128.534C291.753 124.958 298.151 119.213 302.506 112.024C305.413 107.225 307.336 101.902 308.166 96.3605C308.995 90.819 308.714 85.1687 307.339 79.7347C305.964 74.3008 303.522 69.1905 300.154 64.698C296.785 60.2055 292.556 56.4194 287.711 53.5576Z" fill="#0067B9"/>
<path d="M260.678 103.099C260.678 103.099 260.341 103.042 260.284 103.033C258.149 96.1727 256.258 89.2385 254.555 82.2208C254.555 82.2208 254.621 81.8292 254.631 81.7733C254.714 81.7991 254.787 81.8515 254.838 81.9224C254.888 81.9933 254.914 82.0787 254.911 82.1657C256.671 89.1928 258.337 96.0892 260.65 102.922C260.829 102.894 260.734 103.108 260.678 103.099Z" fill="#E5B31D"/>
<path d="M270.134 132.304C262.819 119.868 256.986 106.627 252.752 92.8498L251.056 86.8114C250.886 86.8685 250.705 86.8829 250.528 86.8532C250.351 86.8235 250.185 86.7507 250.043 86.6413C250.602 88.8064 251.207 91.0369 251.691 93.3044C254.473 99.1655 256.871 105.199 258.87 111.368C260.147 115.783 260.955 119.888 261.923 124.078C263.24 126.889 264.698 129.55 266.316 132.296C265.81 132.211 265.36 132.135 264.862 132.339L262.973 129.145C262.964 129.441 262.873 129.729 262.708 129.976C262.544 130.223 262.313 130.419 262.042 130.542C261.715 130.607 261.376 130.586 261.059 130.482C260.742 130.379 260.458 130.196 260.233 129.951L261.092 132.051C260.722 131.961 260.346 131.898 259.966 131.862C258.697 128.772 257.539 125.701 256.335 122.564C255.131 119.428 252.767 114.6 251.143 110.53C251.034 111.152 250.734 111.724 250.286 112.17L251.004 114.074C253.948 119.919 256.76 125.858 259.573 131.796C259.573 131.796 259.291 131.749 259.179 131.73C256.983 127.276 254.909 122.785 252.591 118.368L257.706 131.885C256.581 131.696 255.455 131.507 254.33 131.318L253.732 130.067L253.209 129.058L252.554 128.143L253.608 131.139C252.314 130.922 251.143 130.322 249.943 129.891C248.065 125.95 246.253 121.964 244.619 117.95C242.579 115.306 240.595 112.671 238.574 109.915L238.947 111.128C241.364 117.413 244.413 123.438 248.049 129.112C247.74 128.938 247.417 128.787 247.084 128.662L245.027 125.095C243.036 121.481 241.195 118.007 239.269 114.692C241.033 119.165 243.077 123.525 245.388 127.745C244.769 127.641 244.263 127.211 243.692 126.827C243.121 126.443 243.121 126.443 242.802 126.275C240.97 122.745 239.223 119.057 237.466 115.425C237.371 115.45 237.272 115.455 237.175 115.439C237.078 115.422 236.985 115.385 236.904 115.33C236.099 114.757 235.542 113.903 235.342 112.939L235.203 112.053C234.384 108.693 233.499 105.38 232.736 102.03C232.276 101.359 231.893 100.639 231.596 99.8824C230.128 97.2769 228.67 94.6155 227.174 91.8327C227.155 91.9327 227.112 92.0266 227.048 92.1061C226.984 92.1856 226.901 92.2484 226.807 92.2889C226.413 92.2228 225.851 91.7831 225.637 90.9992L225.255 89.8418L225.999 93.3038L225.923 93.7513L227.135 97.5221C230.5 106.792 234.673 115.752 239.607 124.3C237.481 122.709 235.518 120.914 233.745 118.942C231.823 116.525 230.09 113.964 228.563 111.283L224.983 104.41C221.565 94.6366 221.844 83.9606 225.769 74.3796C229.694 64.7986 236.996 56.9691 246.309 52.3562C246.264 52.9991 246.156 53.636 245.987 54.2582L250.042 67.1944C251.413 71.3946 252.897 75.6137 254.483 79.9076C254.417 80.2992 254.341 80.7468 254.313 80.9146C254.284 81.0824 253.806 80.8295 253.591 80.3907C250.883 74.1822 248.624 68.3945 246.535 61.9449C247.641 67.3663 248.729 72.5546 250.341 78.0611L251.097 80.0867C251.329 80.7704 251.5 81.473 251.609 82.1864C253.492 89.0402 255.768 95.781 258.428 102.376C260.874 108.08 263.211 112.73 266.014 118.379L273.418 131.705C272.336 131.971 271.24 132.171 270.134 132.304Z" fill="#245D8A"/>
</svg>
